<?xml version="1.0" encoding="utf-8"?>
<!-- Generator: Adobe Illustrator 19.2.0, SVG Export Plug-In . SVG Version: 6.00 Build 0)  -->
<svg version="1.1" id="Layer_1" xmlns="http://www.w3.org/2000/svg" xmlns:xlink="http://www.w3.org/1999/xlink" x="0px" y="0px"
	 viewBox="0 0 1600 900" style="enable-background:new 0 0 1600 900;" xml:space="preserve">
<style type="text/css">
	.st0{fill:#455A64;}
	.st1{fill:#607D8B;}
	.st2{opacity:0.7;}
	.st3{opacity:0.26;clip-path:url(#SVGID_2_);}
	.st4{fill:none;stroke:#607D8B;stroke-width:4.4199;stroke-miterlimit:10;}
	.st5{fill:#ECEFF1;}
	.st6{opacity:0.26;clip-path:url(#SVGID_4_);}
	.st7{fill:none;stroke:#B0BEC5;stroke-width:1.105;stroke-miterlimit:10;}
	.st8{fill:#B0BEC5;}
	.st9{fill:#FFFFFF;}
	.st10{fill:#84FFFF;}
	.st11{fill:#00B8D4;}
	.st12{fill:#00E5FF;}
	.st13{opacity:0.26;clip-path:url(#SVGID_6_);}
	.st14{fill:none;stroke:#607D8B;stroke-width:3.5359;stroke-miterlimit:10;}
	.st15{opacity:0.26;clip-path:url(#SVGID_8_);}
	.st16{fill:none;stroke:#B0BEC5;stroke-width:0.884;stroke-miterlimit:10;}
	.st17{fill:#CFD8DC;}
	.st18{fill:#05B8D4;}
	.st19{opacity:0.26;}
	.st20{fill:none;stroke:#00B8D4;stroke-width:1.105;stroke-miterlimit:10;}
	.st21{fill:none;stroke:#ECEFF1;stroke-width:1.105;stroke-miterlimit:10;}
	.st22{fill:none;}
	.st23{fill:#78909C;}
	.st24{fill:none;stroke:#00B8D4;stroke-width:0.884;stroke-miterlimit:10;}
	.st25{fill:none;stroke:#ECEFF1;stroke-width:0.884;stroke-miterlimit:10;}
	.st26{opacity:0.26;fill:#37474F;}
	.st27{clip-path:url(#SVGID_10_);}
	.st28{opacity:0.26;fill:none;stroke:#84FFFF;stroke-width:1.1046;stroke-miterlimit:10;}
	.st29{fill:#37474F;}
	.st30{fill:#18FFFF;}
	.st31{opacity:0.26;clip-path:url(#SVGID_12_);fill:none;stroke:#B0BEC5;stroke-width:1.1046;stroke-miterlimit:10;}
	.st32{fill:#90A4AE;}
	.st33{clip-path:url(#SVGID_14_);}
	.st34{opacity:0.26;fill:none;stroke:#84FFFF;stroke-width:0.8837;stroke-miterlimit:10;}
	.st35{opacity:0.26;clip-path:url(#SVGID_16_);fill:none;stroke:#B0BEC5;stroke-width:0.8837;stroke-miterlimit:10;}
	.st36{opacity:0.75;}
	.st37{clip-path:url(#SVGID_18_);}
	.st38{opacity:0.26;fill:none;stroke:#37474F;stroke-width:1.1045;stroke-miterlimit:10;}
	.st39{clip-path:url(#SVGID_20_);}
	.st40{opacity:0.26;fill:none;stroke:#84FFFF;stroke-width:1.1131;stroke-miterlimit:10;}
	.st41{clip-path:url(#SVGID_22_);}
	.st42{opacity:0.26;fill:none;stroke:#37474F;stroke-width:0.8836;stroke-miterlimit:10;}
	.st43{clip-path:url(#SVGID_24_);}
	.st44{opacity:0.26;fill:none;stroke:#84FFFF;stroke-width:0.8905;stroke-miterlimit:10;}
	.st45{opacity:0.5;fill:#ECEFF1;}
	.st46{opacity:0.26;clip-path:url(#SVGID_26_);}
	.st47{fill:none;stroke:#B0BEC5;stroke-width:0.5655;stroke-miterlimit:10;}
	.st48{fill:none;stroke:#455A64;stroke-width:10.0549;stroke-miterlimit:10;}
	.st49{fill:none;stroke:#455A64;stroke-width:10.0549;stroke-miterlimit:10;stroke-dasharray:38.0392,38.0392;}
	.st50{fill:none;stroke:#455A64;stroke-width:10.0549;stroke-miterlimit:10;stroke-dasharray:40.2195;}
	.st51{opacity:0.75;fill:#37474F;}
	.st52{opacity:0.5;fill:#37474F;}
	.st53{opacity:0.5;fill:#607D8B;}
	.st54{opacity:0.5;fill:#B0BEC5;}
	.st55{opacity:0.26;clip-path:url(#SVGID_28_);fill:#37474F;}
	.st56{fill:none;stroke:#455A64;stroke-width:10.0549;stroke-miterlimit:10;stroke-dasharray:40.2197;}
</style>
<g>
	<rect y="0.1" class="st12" width="1600" height="899.7"/>
	<path class="st29" d="M817,590.7H356.7V302.4c0-5.8,4.7-10.5,10.5-10.5h439.3c5.8,0,10.5,4.7,10.5,10.5V590.7z"/>
	<rect x="376.8" y="312" class="st10" width="420.1" height="258.6"/>
	<circle class="st1" cx="586.9" cy="301.9" r="5.1"/>
	<path class="st1" d="M858.8,618.7H315c-5.8,0-10.5-4.7-10.5-10.5v-17.5h564.9v17.5C869.3,613.9,864.6,618.7,858.8,618.7z"/>
	<rect y="618.7" class="st11" width="1599.5" height="56.2"/>
	
		<rect x="28.1" y="759.2" transform="matrix(3.192076e-10 1 -1 3.192076e-10 927.9374 646.7712)" class="st11" width="224.9" height="56.2"/>
	<rect x="112.5" y="674.9" class="st26" width="56.2" height="56.2"/>
	
		<rect x="1346.5" y="759.2" transform="matrix(3.191552e-10 1 -1 3.191552e-10 2246.2871 -671.5784)" class="st11" width="224.9" height="56.2"/>
	
		<rect x="1202.6" y="268.3" transform="matrix(0.7071 0.7071 -0.7071 0.7071 587.6873 -854.1144)" class="st0" width="244.5" height="28.1"/>
	
		<rect x="1257.5" y="451.2" transform="matrix(-0.2589 0.9659 -0.9659 -0.2589 2173.9861 -737.6231)" class="st0" width="224.9" height="28.1"/>
	<rect x="1430.8" y="674.9" class="st26" width="56.2" height="56.2"/>
	<rect x="376.8" y="312" class="st17" width="420.1" height="258.6"/>
	<rect x="394.1" y="329.2" class="st9" width="385.6" height="241.4"/>
	<g>
		<circle class="st11" cx="449.5" cy="389.7" r="23.5"/>
		<rect x="491.3" y="358.9" class="st5" width="251.3" height="61.7"/>
		<rect x="508.5" y="373.6" class="st11" width="204.2" height="5"/>
		<rect x="508.5" y="387.2" class="st11" width="212.8" height="5"/>
		<rect x="508.5" y="400.8" class="st11" width="188.7" height="5"/>
	</g>
	<g>
		<circle class="st11" cx="449.5" cy="545.6" r="23.5"/>
		<rect x="491.3" y="514.7" class="st5" width="251.3" height="55.9"/>
		<rect x="508.5" y="529.4" class="st11" width="204.2" height="5"/>
		<rect x="508.5" y="543" class="st11" width="212.8" height="5"/>
		<rect x="508.5" y="556.7" class="st11" width="188.7" height="5"/>
	</g>
	<g>
		<circle class="st32" cx="724.3" cy="467.6" r="23.5"/>
		
			<rect x="431.1" y="436.8" transform="matrix(-1 -3.867452e-11 3.867452e-11 -1 1113.624 935.2798)" class="st5" width="251.3" height="61.7"/>
		<rect x="448.4" y="451.5" class="st32" width="201.2" height="5"/>
		<rect x="448.4" y="465.1" class="st32" width="185.7" height="5"/>
		<rect x="448.4" y="478.8" class="st32" width="196.1" height="5"/>
	</g>
	<circle class="st1" cx="1403.6" cy="361.1" r="24.5"/>
	<rect x="394.1" y="329.2" class="st1" width="385.6" height="7.8"/>
	<path class="st1" d="M1343.2,562.4c-24.8,0-45.8,15.6-54.1,37.5h108.1C1389.1,578,1368,562.4,1343.2,562.4z"/>
	<path class="st0" d="M1266.1,590.7h154.2c5.8,0,10.5,4.7,10.5,10.5v17.5h-175.2v-17.5C1255.6,595.4,1260.3,590.7,1266.1,590.7z"/>
	<path class="st1" d="M1247,125.3l62,62c4.1,4.1,4.1,10.8,0,14.9l-71.7,71.7l-76.9-76.9l71.7-71.7
		C1236.2,121.2,1242.9,121.2,1247,125.3z"/>
	<path class="st29" d="M1295.2,123.6l15.5,15.5c1.2,1.2,1.2,3.2,0,4.4l-21.1,21.1l-19.9-19.9l21.1-21.1
		C1292,122.4,1294,122.4,1295.2,123.6z"/>
	<path class="st29" d="M1291.3,143c-8.8-8.8-21.7-10.7-32.4-5.8l38.2,38.2C1301.9,164.8,1300,151.8,1291.3,143z"/>
	<path class="st0" d="M1220.7,213.6c-35-35-86.9-42.7-129.5-23.4L1244,343.2C1263.4,300.6,1255.7,248.7,1220.7,213.6z"/>
	<polyline class="st45" points="1091.1,190.3 58.1,618.7 1121.6,618.7 1244,343.2 	"/>
</g>
</svg>
